<svg xmlns="http://www.w3.org/2000/svg" viewBox="600 188 570 200" width="570" height="200" role="img" aria-label="Celulas que se encapsulan en gotas con una perla de codigo de barras, y el codigo de barras resultante."><style><![CDATA[@keyframes lcg-entra {  from { transform: translate(0,0); }  to   { transform: translate(42.5px,10.0px); }}@keyframes lcg-avanza {  from { transform: translateX(0); }  to   { transform: translateX(93.3px); }}@keyframes lcg-pulsa {  0%, 70%, 100% { opacity: .6; }  20%, 40%      { opacity: 1;  }}.lcg-celula { animation: lcg-entra 3.6s linear infinite; }.lcg-gota   { animation: lcg-avanza 3.6s linear infinite; }.lcg-barra  { animation: lcg-pulsa 3.6s ease-in-out infinite; }@media (prefers-reduced-motion: reduce) {  .lcg-celula, .lcg-gota, .lcg-barra { animation: none; }}]]></style><path d="M 700 256 H 1150 M 700 320 H 1150" stroke="#000977" stroke-opacity="0.35" stroke-width="3" fill="none"/><path d="M 694 214 L 800 274 M 694 362 L 800 302" stroke="#000977" stroke-opacity="0.55" stroke-width="4" stroke-linecap="round" fill="none"/><g class="lcg-celula"><circle cx="630.0" cy="248.0" r="15.2" fill="#59C1CC" opacity="0.22"/><circle cx="630.0" cy="248.0" r="8.0" fill="#59C1CC" opacity="1.00"/></g><g class="lcg-celula"><circle cx="672.5" cy="258.0" r="15.2" fill="#59C1CC" opacity="0.22"/><circle cx="672.5" cy="258.0" r="8.0" fill="#59C1CC" opacity="1.00"/></g><g class="lcg-celula"><circle cx="715.0" cy="268.0" r="15.2" fill="#59C1CC" opacity="0.22"/><circle cx="715.0" cy="268.0" r="8.0" fill="#59C1CC" opacity="1.00"/></g><g class="lcg-celula"><circle cx="757.5" cy="278.0" r="15.2" fill="#59C1CC" opacity="0.22"/><circle cx="757.5" cy="278.0" r="8.0" fill="#59C1CC" opacity="1.00"/></g><g class="lcg-gota"><circle cx="840.0" cy="288.0" r="27.0" fill="#000977" fill-opacity="0.08" stroke="#000977" stroke-width="3.5" stroke-opacity="0.9"/><circle cx="832.0" cy="286.0" r="14.2" fill="#59C1CC" opacity="0.22"/><circle cx="832.0" cy="286.0" r="7.5" fill="#59C1CC" opacity="1.00"/><circle cx="849.0" cy="292.0" r="7.0" fill="none" stroke="#937E00" stroke-width="3" opacity="1.00"/><circle cx="849.0" cy="292.0" r="2.8" fill="#937E00" opacity="1.00"/></g><g class="lcg-gota"><circle cx="933.3" cy="288.0" r="27.0" fill="#000977" fill-opacity="0.08" stroke="#000977" stroke-width="3.5" stroke-opacity="0.9"/><circle cx="925.3" cy="286.0" r="14.2" fill="#59C1CC" opacity="0.22"/><circle cx="925.3" cy="286.0" r="7.5" fill="#59C1CC" opacity="1.00"/><circle cx="942.3" cy="292.0" r="7.0" fill="none" stroke="#937E00" stroke-width="3" opacity="1.00"/><circle cx="942.3" cy="292.0" r="2.8" fill="#937E00" opacity="1.00"/></g><g class="lcg-gota"><circle cx="1026.7" cy="288.0" r="27.0" fill="#000977" fill-opacity="0.08" stroke="#000977" stroke-width="3.5" stroke-opacity="0.9"/><circle cx="1018.7" cy="286.0" r="14.2" fill="#59C1CC" opacity="0.22"/><circle cx="1018.7" cy="286.0" r="7.5" fill="#59C1CC" opacity="1.00"/><circle cx="1035.7" cy="292.0" r="7.0" fill="none" stroke="#937E00" stroke-width="3" opacity="1.00"/><circle cx="1035.7" cy="292.0" r="2.8" fill="#937E00" opacity="1.00"/></g><rect class="lcg-barra" x="1092" y="261" width="5" height="54" rx="2" fill="#937E00" style="animation-delay:0.00s"/><rect class="lcg-barra" x="1102" y="273" width="5" height="30" rx="2" fill="#937E00" style="animation-delay:0.25s"/><rect class="lcg-barra" x="1112" y="265" width="5" height="46" rx="2" fill="#937E00" style="animation-delay:0.50s"/><rect class="lcg-barra" x="1122" y="277" width="5" height="22" rx="2" fill="#937E00" style="animation-delay:0.75s"/><rect class="lcg-barra" x="1132" y="269" width="5" height="38" rx="2" fill="#937E00" style="animation-delay:1.00s"/></svg>