<svg xmlns="http://www.w3.org/2000/svg" viewBox="0 0 1180 430" width="1180" height="430" role="img" aria-label="A la izquierda, una perla de hidrogel esférica con setenta y dos oligos en su superficie que se desprenden y se alejan a la deriva, en bucle. Cada oligo lleva su código de barras en azul, su UMI en turquesa y su cola de poli-dT en oro. A la derecha, el mecanismo en pequeño: el brazo que sujeta el oligo contiene un enlace disulfuro, dos azufres unidos; el agente reductor lo corta y cada azufre queda como un tiol, de modo que el brazo se queda en la perla y el oligo queda libre. Al pie, las cifras de oligos por perla y de eficiencia de captura, con su fuente.">
<defs>
<radialGradient id="gPerla" cx="34%" cy="28%" r="76%"><stop offset="0%" stop-color="#4A5AD0"/><stop offset="54%" stop-color="#2B3FA8"/><stop offset="100%" stop-color="#000977"/></radialGradient>
<marker id="fCorte" viewBox="0 0 10 10" refX="9" refY="5" markerWidth="7" markerHeight="7" orient="auto"><path d="M0,0 L10,5 L0,10 z" fill="#937E00"/></marker>
<style>.t{font-family:"Source Sans Pro","Segoe UI",system-ui,sans-serif;fill:#141A4A;}.eti{font-size:24px;font-weight:700;}.nota{font-size:24px;font-weight:600;}.at{font-size:24px;font-weight:700;fill:#ffffff;}@keyframes suelta{0%{transform:translateX(0);opacity:1}58%{transform:translateX(0);opacity:1}100%{transform:translateX(32px);opacity:0}}.ol{animation:suelta 6.4s linear infinite;}@media (prefers-reduced-motion: reduce){.ol{animation:none;opacity:1}}</style>
</defs>
<g transform="rotate(0.00 244 172)">
<g class="ol">
<line x1="318" y1="172" x2="332" y2="172" stroke="#937E00" stroke-width="3"/>
<rect x="332" y="168" width="16" height="9" rx="4" fill="#000977"/><rect x="350" y="168" width="11" height="9" rx="4" fill="#2E9AA6"/><rect x="363" y="168" width="14" height="9" rx="4" fill="#937E00"/>
</g></g>
<g transform="rotate(5.00 244 172)">
<g class="ol">
<line x1="318" y1="172" x2="332" y2="172" stroke="#937E00" stroke-width="3"/>
<rect x="332" y="168" width="16" height="9" rx="4" fill="#000977"/><rect x="350" y="168" width="11" height="9" rx="4" fill="#2E9AA6"/><rect x="363" y="168" width="14" height="9" rx="4" fill="#937E00"/>
</g></g>
<g transform="rotate(10.00 244 172)">
<g class="ol">
<line x1="318" y1="172" x2="332" y2="172" stroke="#937E00" stroke-width="3"/>
<rect x="332" y="168" width="16" height="9" rx="4" fill="#000977"/><rect x="350" y="168" width="11" height="9" rx="4" fill="#2E9AA6"/><rect x="363" y="168" width="14" height="9" rx="4" fill="#937E00"/>
</g></g>
<g transform="rotate(15.00 244 172)">
<g class="ol">
<line x1="318" y1="172" x2="332" y2="172" stroke="#937E00" stroke-width="3"/>
<rect x="332" y="168" width="16" height="9" rx="4" fill="#000977"/><rect x="350" y="168" width="11" height="9" rx="4" fill="#2E9AA6"/><rect x="363" y="168" width="14" height="9" rx="4" fill="#937E00"/>
</g></g>
<g transform="rotate(20.00 244 172)">
<g class="ol">
<line x1="318" y1="172" x2="332" y2="172" stroke="#937E00" stroke-width="3"/>
<rect x="332" y="168" width="16" height="9" rx="4" fill="#000977"/><rect x="350" y="168" width="11" height="9" rx="4" fill="#2E9AA6"/><rect x="363" y="168" width="14" height="9" rx="4" fill="#937E00"/>
</g></g>
<g transform="rotate(25.00 244 172)">
<g class="ol">
<line x1="318" y1="172" x2="332" y2="172" stroke="#937E00" stroke-width="3"/>
<rect x="332" y="168" width="16" height="9" rx="4" fill="#000977"/><rect x="350" y="168" width="11" height="9" rx="4" fill="#2E9AA6"/><rect x="363" y="168" width="14" height="9" rx="4" fill="#937E00"/>
</g></g>
<g transform="rotate(30.00 244 172)">
<g class="ol">
<line x1="318" y1="172" x2="332" y2="172" stroke="#937E00" stroke-width="3"/>
<rect x="332" y="168" width="16" height="9" rx="4" fill="#000977"/><rect x="350" y="168" width="11" height="9" rx="4" fill="#2E9AA6"/><rect x="363" y="168" width="14" height="9" rx="4" fill="#937E00"/>
</g></g>
<g transform="rotate(35.00 244 172)">
<g class="ol">
<line x1="318" y1="172" x2="332" y2="172" stroke="#937E00" stroke-width="3"/>
<rect x="332" y="168" width="16" height="9" rx="4" fill="#000977"/><rect x="350" y="168" width="11" height="9" rx="4" fill="#2E9AA6"/><rect x="363" y="168" width="14" height="9" rx="4" fill="#937E00"/>
</g></g>
<g transform="rotate(40.00 244 172)">
<g class="ol">
<line x1="318" y1="172" x2="332" y2="172" stroke="#937E00" stroke-width="3"/>
<rect x="332" y="168" width="16" height="9" rx="4" fill="#000977"/><rect x="350" y="168" width="11" height="9" rx="4" fill="#2E9AA6"/><rect x="363" y="168" width="14" height="9" rx="4" fill="#937E00"/>
</g></g>
<g transform="rotate(45.00 244 172)">
<g class="ol">
<line x1="318" y1="172" x2="332" y2="172" stroke="#937E00" stroke-width="3"/>
<rect x="332" y="168" width="16" height="9" rx="4" fill="#000977"/><rect x="350" y="168" width="11" height="9" rx="4" fill="#2E9AA6"/><rect x="363" y="168" width="14" height="9" rx="4" fill="#937E00"/>
</g></g>
<g transform="rotate(50.00 244 172)">
<g class="ol">
<line x1="318" y1="172" x2="332" y2="172" stroke="#937E00" stroke-width="3"/>
<rect x="332" y="168" width="16" height="9" rx="4" fill="#000977"/><rect x="350" y="168" width="11" height="9" rx="4" fill="#2E9AA6"/><rect x="363" y="168" width="14" height="9" rx="4" fill="#937E00"/>
</g></g>
<g transform="rotate(55.00 244 172)">
<g class="ol">
<line x1="318" y1="172" x2="332" y2="172" stroke="#937E00" stroke-width="3"/>
<rect x="332" y="168" width="16" height="9" rx="4" fill="#000977"/><rect x="350" y="168" width="11" height="9" rx="4" fill="#2E9AA6"/><rect x="363" y="168" width="14" height="9" rx="4" fill="#937E00"/>
</g></g>
<g transform="rotate(60.00 244 172)">
<g class="ol">
<line x1="318" y1="172" x2="332" y2="172" stroke="#937E00" stroke-width="3"/>
<rect x="332" y="168" width="16" height="9" rx="4" fill="#000977"/><rect x="350" y="168" width="11" height="9" rx="4" fill="#2E9AA6"/><rect x="363" y="168" width="14" height="9" rx="4" fill="#937E00"/>
</g></g>
<g transform="rotate(65.00 244 172)">
<g class="ol">
<line x1="318" y1="172" x2="332" y2="172" stroke="#937E00" stroke-width="3"/>
<rect x="332" y="168" width="16" height="9" rx="4" fill="#000977"/><rect x="350" y="168" width="11" height="9" rx="4" fill="#2E9AA6"/><rect x="363" y="168" width="14" height="9" rx="4" fill="#937E00"/>
</g></g>
<g transform="rotate(70.00 244 172)">
<g class="ol">
<line x1="318" y1="172" x2="332" y2="172" stroke="#937E00" stroke-width="3"/>
<rect x="332" y="168" width="16" height="9" rx="4" fill="#000977"/><rect x="350" y="168" width="11" height="9" rx="4" fill="#2E9AA6"/><rect x="363" y="168" width="14" height="9" rx="4" fill="#937E00"/>
</g></g>
<g transform="rotate(75.00 244 172)">
<g class="ol">
<line x1="318" y1="172" x2="332" y2="172" stroke="#937E00" stroke-width="3"/>
<rect x="332" y="168" width="16" height="9" rx="4" fill="#000977"/><rect x="350" y="168" width="11" height="9" rx="4" fill="#2E9AA6"/><rect x="363" y="168" width="14" height="9" rx="4" fill="#937E00"/>
</g></g>
<g transform="rotate(80.00 244 172)">
<g class="ol">
<line x1="318" y1="172" x2="332" y2="172" stroke="#937E00" stroke-width="3"/>
<rect x="332" y="168" width="16" height="9" rx="4" fill="#000977"/><rect x="350" y="168" width="11" height="9" rx="4" fill="#2E9AA6"/><rect x="363" y="168" width="14" height="9" rx="4" fill="#937E00"/>
</g></g>
<g transform="rotate(85.00 244 172)">
<g class="ol">
<line x1="318" y1="172" x2="332" y2="172" stroke="#937E00" stroke-width="3"/>
<rect x="332" y="168" width="16" height="9" rx="4" fill="#000977"/><rect x="350" y="168" width="11" height="9" rx="4" fill="#2E9AA6"/><rect x="363" y="168" width="14" height="9" rx="4" fill="#937E00"/>
</g></g>
<g transform="rotate(90.00 244 172)">
<g class="ol">
<line x1="318" y1="172" x2="332" y2="172" stroke="#937E00" stroke-width="3"/>
<rect x="332" y="168" width="16" height="9" rx="4" fill="#000977"/><rect x="350" y="168" width="11" height="9" rx="4" fill="#2E9AA6"/><rect x="363" y="168" width="14" height="9" rx="4" fill="#937E00"/>
</g></g>
<g transform="rotate(95.00 244 172)">
<g class="ol">
<line x1="318" y1="172" x2="332" y2="172" stroke="#937E00" stroke-width="3"/>
<rect x="332" y="168" width="16" height="9" rx="4" fill="#000977"/><rect x="350" y="168" width="11" height="9" rx="4" fill="#2E9AA6"/><rect x="363" y="168" width="14" height="9" rx="4" fill="#937E00"/>
</g></g>
<g transform="rotate(100.00 244 172)">
<g class="ol">
<line x1="318" y1="172" x2="332" y2="172" stroke="#937E00" stroke-width="3"/>
<rect x="332" y="168" width="16" height="9" rx="4" fill="#000977"/><rect x="350" y="168" width="11" height="9" rx="4" fill="#2E9AA6"/><rect x="363" y="168" width="14" height="9" rx="4" fill="#937E00"/>
</g></g>
<g transform="rotate(105.00 244 172)">
<g class="ol">
<line x1="318" y1="172" x2="332" y2="172" stroke="#937E00" stroke-width="3"/>
<rect x="332" y="168" width="16" height="9" rx="4" fill="#000977"/><rect x="350" y="168" width="11" height="9" rx="4" fill="#2E9AA6"/><rect x="363" y="168" width="14" height="9" rx="4" fill="#937E00"/>
</g></g>
<g transform="rotate(110.00 244 172)">
<g class="ol">
<line x1="318" y1="172" x2="332" y2="172" stroke="#937E00" stroke-width="3"/>
<rect x="332" y="168" width="16" height="9" rx="4" fill="#000977"/><rect x="350" y="168" width="11" height="9" rx="4" fill="#2E9AA6"/><rect x="363" y="168" width="14" height="9" rx="4" fill="#937E00"/>
</g></g>
<g transform="rotate(115.00 244 172)">
<g class="ol">
<line x1="318" y1="172" x2="332" y2="172" stroke="#937E00" stroke-width="3"/>
<rect x="332" y="168" width="16" height="9" rx="4" fill="#000977"/><rect x="350" y="168" width="11" height="9" rx="4" fill="#2E9AA6"/><rect x="363" y="168" width="14" height="9" rx="4" fill="#937E00"/>
</g></g>
<g transform="rotate(120.00 244 172)">
<g class="ol">
<line x1="318" y1="172" x2="332" y2="172" stroke="#937E00" stroke-width="3"/>
<rect x="332" y="168" width="16" height="9" rx="4" fill="#000977"/><rect x="350" y="168" width="11" height="9" rx="4" fill="#2E9AA6"/><rect x="363" y="168" width="14" height="9" rx="4" fill="#937E00"/>
</g></g>
<g transform="rotate(125.00 244 172)">
<g class="ol">
<line x1="318" y1="172" x2="332" y2="172" stroke="#937E00" stroke-width="3"/>
<rect x="332" y="168" width="16" height="9" rx="4" fill="#000977"/><rect x="350" y="168" width="11" height="9" rx="4" fill="#2E9AA6"/><rect x="363" y="168" width="14" height="9" rx="4" fill="#937E00"/>
</g></g>
<g transform="rotate(130.00 244 172)">
<g class="ol">
<line x1="318" y1="172" x2="332" y2="172" stroke="#937E00" stroke-width="3"/>
<rect x="332" y="168" width="16" height="9" rx="4" fill="#000977"/><rect x="350" y="168" width="11" height="9" rx="4" fill="#2E9AA6"/><rect x="363" y="168" width="14" height="9" rx="4" fill="#937E00"/>
</g></g>
<g transform="rotate(135.00 244 172)">
<g class="ol">
<line x1="318" y1="172" x2="332" y2="172" stroke="#937E00" stroke-width="3"/>
<rect x="332" y="168" width="16" height="9" rx="4" fill="#000977"/><rect x="350" y="168" width="11" height="9" rx="4" fill="#2E9AA6"/><rect x="363" y="168" width="14" height="9" rx="4" fill="#937E00"/>
</g></g>
<g transform="rotate(140.00 244 172)">
<g class="ol">
<line x1="318" y1="172" x2="332" y2="172" stroke="#937E00" stroke-width="3"/>
<rect x="332" y="168" width="16" height="9" rx="4" fill="#000977"/><rect x="350" y="168" width="11" height="9" rx="4" fill="#2E9AA6"/><rect x="363" y="168" width="14" height="9" rx="4" fill="#937E00"/>
</g></g>
<g transform="rotate(145.00 244 172)">
<g class="ol">
<line x1="318" y1="172" x2="332" y2="172" stroke="#937E00" stroke-width="3"/>
<rect x="332" y="168" width="16" height="9" rx="4" fill="#000977"/><rect x="350" y="168" width="11" height="9" rx="4" fill="#2E9AA6"/><rect x="363" y="168" width="14" height="9" rx="4" fill="#937E00"/>
</g></g>
<g transform="rotate(150.00 244 172)">
<g class="ol">
<line x1="318" y1="172" x2="332" y2="172" stroke="#937E00" stroke-width="3"/>
<rect x="332" y="168" width="16" height="9" rx="4" fill="#000977"/><rect x="350" y="168" width="11" height="9" rx="4" fill="#2E9AA6"/><rect x="363" y="168" width="14" height="9" rx="4" fill="#937E00"/>
</g></g>
<g transform="rotate(155.00 244 172)">
<g class="ol">
<line x1="318" y1="172" x2="332" y2="172" stroke="#937E00" stroke-width="3"/>
<rect x="332" y="168" width="16" height="9" rx="4" fill="#000977"/><rect x="350" y="168" width="11" height="9" rx="4" fill="#2E9AA6"/><rect x="363" y="168" width="14" height="9" rx="4" fill="#937E00"/>
</g></g>
<g transform="rotate(160.00 244 172)">
<g class="ol">
<line x1="318" y1="172" x2="332" y2="172" stroke="#937E00" stroke-width="3"/>
<rect x="332" y="168" width="16" height="9" rx="4" fill="#000977"/><rect x="350" y="168" width="11" height="9" rx="4" fill="#2E9AA6"/><rect x="363" y="168" width="14" height="9" rx="4" fill="#937E00"/>
</g></g>
<g transform="rotate(165.00 244 172)">
<g class="ol">
<line x1="318" y1="172" x2="332" y2="172" stroke="#937E00" stroke-width="3"/>
<rect x="332" y="168" width="16" height="9" rx="4" fill="#000977"/><rect x="350" y="168" width="11" height="9" rx="4" fill="#2E9AA6"/><rect x="363" y="168" width="14" height="9" rx="4" fill="#937E00"/>
</g></g>
<g transform="rotate(170.00 244 172)">
<g class="ol">
<line x1="318" y1="172" x2="332" y2="172" stroke="#937E00" stroke-width="3"/>
<rect x="332" y="168" width="16" height="9" rx="4" fill="#000977"/><rect x="350" y="168" width="11" height="9" rx="4" fill="#2E9AA6"/><rect x="363" y="168" width="14" height="9" rx="4" fill="#937E00"/>
</g></g>
<g transform="rotate(175.00 244 172)">
<g class="ol">
<line x1="318" y1="172" x2="332" y2="172" stroke="#937E00" stroke-width="3"/>
<rect x="332" y="168" width="16" height="9" rx="4" fill="#000977"/><rect x="350" y="168" width="11" height="9" rx="4" fill="#2E9AA6"/><rect x="363" y="168" width="14" height="9" rx="4" fill="#937E00"/>
</g></g>
<g transform="rotate(180.00 244 172)">
<g class="ol">
<line x1="318" y1="172" x2="332" y2="172" stroke="#937E00" stroke-width="3"/>
<rect x="332" y="168" width="16" height="9" rx="4" fill="#000977"/><rect x="350" y="168" width="11" height="9" rx="4" fill="#2E9AA6"/><rect x="363" y="168" width="14" height="9" rx="4" fill="#937E00"/>
</g></g>
<g transform="rotate(185.00 244 172)">
<g class="ol">
<line x1="318" y1="172" x2="332" y2="172" stroke="#937E00" stroke-width="3"/>
<rect x="332" y="168" width="16" height="9" rx="4" fill="#000977"/><rect x="350" y="168" width="11" height="9" rx="4" fill="#2E9AA6"/><rect x="363" y="168" width="14" height="9" rx="4" fill="#937E00"/>
</g></g>
<g transform="rotate(190.00 244 172)">
<g class="ol">
<line x1="318" y1="172" x2="332" y2="172" stroke="#937E00" stroke-width="3"/>
<rect x="332" y="168" width="16" height="9" rx="4" fill="#000977"/><rect x="350" y="168" width="11" height="9" rx="4" fill="#2E9AA6"/><rect x="363" y="168" width="14" height="9" rx="4" fill="#937E00"/>
</g></g>
<g transform="rotate(195.00 244 172)">
<g class="ol">
<line x1="318" y1="172" x2="332" y2="172" stroke="#937E00" stroke-width="3"/>
<rect x="332" y="168" width="16" height="9" rx="4" fill="#000977"/><rect x="350" y="168" width="11" height="9" rx="4" fill="#2E9AA6"/><rect x="363" y="168" width="14" height="9" rx="4" fill="#937E00"/>
</g></g>
<g transform="rotate(200.00 244 172)">
<g class="ol">
<line x1="318" y1="172" x2="332" y2="172" stroke="#937E00" stroke-width="3"/>
<rect x="332" y="168" width="16" height="9" rx="4" fill="#000977"/><rect x="350" y="168" width="11" height="9" rx="4" fill="#2E9AA6"/><rect x="363" y="168" width="14" height="9" rx="4" fill="#937E00"/>
</g></g>
<g transform="rotate(205.00 244 172)">
<g class="ol">
<line x1="318" y1="172" x2="332" y2="172" stroke="#937E00" stroke-width="3"/>
<rect x="332" y="168" width="16" height="9" rx="4" fill="#000977"/><rect x="350" y="168" width="11" height="9" rx="4" fill="#2E9AA6"/><rect x="363" y="168" width="14" height="9" rx="4" fill="#937E00"/>
</g></g>
<g transform="rotate(210.00 244 172)">
<g class="ol">
<line x1="318" y1="172" x2="332" y2="172" stroke="#937E00" stroke-width="3"/>
<rect x="332" y="168" width="16" height="9" rx="4" fill="#000977"/><rect x="350" y="168" width="11" height="9" rx="4" fill="#2E9AA6"/><rect x="363" y="168" width="14" height="9" rx="4" fill="#937E00"/>
</g></g>
<g transform="rotate(215.00 244 172)">
<g class="ol">
<line x1="318" y1="172" x2="332" y2="172" stroke="#937E00" stroke-width="3"/>
<rect x="332" y="168" width="16" height="9" rx="4" fill="#000977"/><rect x="350" y="168" width="11" height="9" rx="4" fill="#2E9AA6"/><rect x="363" y="168" width="14" height="9" rx="4" fill="#937E00"/>
</g></g>
<g transform="rotate(220.00 244 172)">
<g class="ol">
<line x1="318" y1="172" x2="332" y2="172" stroke="#937E00" stroke-width="3"/>
<rect x="332" y="168" width="16" height="9" rx="4" fill="#000977"/><rect x="350" y="168" width="11" height="9" rx="4" fill="#2E9AA6"/><rect x="363" y="168" width="14" height="9" rx="4" fill="#937E00"/>
</g></g>
<g transform="rotate(225.00 244 172)">
<g class="ol">
<line x1="318" y1="172" x2="332" y2="172" stroke="#937E00" stroke-width="3"/>
<rect x="332" y="168" width="16" height="9" rx="4" fill="#000977"/><rect x="350" y="168" width="11" height="9" rx="4" fill="#2E9AA6"/><rect x="363" y="168" width="14" height="9" rx="4" fill="#937E00"/>
</g></g>
<g transform="rotate(230.00 244 172)">
<g class="ol">
<line x1="318" y1="172" x2="332" y2="172" stroke="#937E00" stroke-width="3"/>
<rect x="332" y="168" width="16" height="9" rx="4" fill="#000977"/><rect x="350" y="168" width="11" height="9" rx="4" fill="#2E9AA6"/><rect x="363" y="168" width="14" height="9" rx="4" fill="#937E00"/>
</g></g>
<g transform="rotate(235.00 244 172)">
<g class="ol">
<line x1="318" y1="172" x2="332" y2="172" stroke="#937E00" stroke-width="3"/>
<rect x="332" y="168" width="16" height="9" rx="4" fill="#000977"/><rect x="350" y="168" width="11" height="9" rx="4" fill="#2E9AA6"/><rect x="363" y="168" width="14" height="9" rx="4" fill="#937E00"/>
</g></g>
<g transform="rotate(240.00 244 172)">
<g class="ol">
<line x1="318" y1="172" x2="332" y2="172" stroke="#937E00" stroke-width="3"/>
<rect x="332" y="168" width="16" height="9" rx="4" fill="#000977"/><rect x="350" y="168" width="11" height="9" rx="4" fill="#2E9AA6"/><rect x="363" y="168" width="14" height="9" rx="4" fill="#937E00"/>
</g></g>
<g transform="rotate(245.00 244 172)">
<g class="ol">
<line x1="318" y1="172" x2="332" y2="172" stroke="#937E00" stroke-width="3"/>
<rect x="332" y="168" width="16" height="9" rx="4" fill="#000977"/><rect x="350" y="168" width="11" height="9" rx="4" fill="#2E9AA6"/><rect x="363" y="168" width="14" height="9" rx="4" fill="#937E00"/>
</g></g>
<g transform="rotate(250.00 244 172)">
<g class="ol">
<line x1="318" y1="172" x2="332" y2="172" stroke="#937E00" stroke-width="3"/>
<rect x="332" y="168" width="16" height="9" rx="4" fill="#000977"/><rect x="350" y="168" width="11" height="9" rx="4" fill="#2E9AA6"/><rect x="363" y="168" width="14" height="9" rx="4" fill="#937E00"/>
</g></g>
<g transform="rotate(255.00 244 172)">
<g class="ol">
<line x1="318" y1="172" x2="332" y2="172" stroke="#937E00" stroke-width="3"/>
<rect x="332" y="168" width="16" height="9" rx="4" fill="#000977"/><rect x="350" y="168" width="11" height="9" rx="4" fill="#2E9AA6"/><rect x="363" y="168" width="14" height="9" rx="4" fill="#937E00"/>
</g></g>
<g transform="rotate(260.00 244 172)">
<g class="ol">
<line x1="318" y1="172" x2="332" y2="172" stroke="#937E00" stroke-width="3"/>
<rect x="332" y="168" width="16" height="9" rx="4" fill="#000977"/><rect x="350" y="168" width="11" height="9" rx="4" fill="#2E9AA6"/><rect x="363" y="168" width="14" height="9" rx="4" fill="#937E00"/>
</g></g>
<g transform="rotate(265.00 244 172)">
<g class="ol">
<line x1="318" y1="172" x2="332" y2="172" stroke="#937E00" stroke-width="3"/>
<rect x="332" y="168" width="16" height="9" rx="4" fill="#000977"/><rect x="350" y="168" width="11" height="9" rx="4" fill="#2E9AA6"/><rect x="363" y="168" width="14" height="9" rx="4" fill="#937E00"/>
</g></g>
<g transform="rotate(270.00 244 172)">
<g class="ol">
<line x1="318" y1="172" x2="332" y2="172" stroke="#937E00" stroke-width="3"/>
<rect x="332" y="168" width="16" height="9" rx="4" fill="#000977"/><rect x="350" y="168" width="11" height="9" rx="4" fill="#2E9AA6"/><rect x="363" y="168" width="14" height="9" rx="4" fill="#937E00"/>
</g></g>
<g transform="rotate(275.00 244 172)">
<g class="ol">
<line x1="318" y1="172" x2="332" y2="172" stroke="#937E00" stroke-width="3"/>
<rect x="332" y="168" width="16" height="9" rx="4" fill="#000977"/><rect x="350" y="168" width="11" height="9" rx="4" fill="#2E9AA6"/><rect x="363" y="168" width="14" height="9" rx="4" fill="#937E00"/>
</g></g>
<g transform="rotate(280.00 244 172)">
<g class="ol">
<line x1="318" y1="172" x2="332" y2="172" stroke="#937E00" stroke-width="3"/>
<rect x="332" y="168" width="16" height="9" rx="4" fill="#000977"/><rect x="350" y="168" width="11" height="9" rx="4" fill="#2E9AA6"/><rect x="363" y="168" width="14" height="9" rx="4" fill="#937E00"/>
</g></g>
<g transform="rotate(285.00 244 172)">
<g class="ol">
<line x1="318" y1="172" x2="332" y2="172" stroke="#937E00" stroke-width="3"/>
<rect x="332" y="168" width="16" height="9" rx="4" fill="#000977"/><rect x="350" y="168" width="11" height="9" rx="4" fill="#2E9AA6"/><rect x="363" y="168" width="14" height="9" rx="4" fill="#937E00"/>
</g></g>
<g transform="rotate(290.00 244 172)">
<g class="ol">
<line x1="318" y1="172" x2="332" y2="172" stroke="#937E00" stroke-width="3"/>
<rect x="332" y="168" width="16" height="9" rx="4" fill="#000977"/><rect x="350" y="168" width="11" height="9" rx="4" fill="#2E9AA6"/><rect x="363" y="168" width="14" height="9" rx="4" fill="#937E00"/>
</g></g>
<g transform="rotate(295.00 244 172)">
<g class="ol">
<line x1="318" y1="172" x2="332" y2="172" stroke="#937E00" stroke-width="3"/>
<rect x="332" y="168" width="16" height="9" rx="4" fill="#000977"/><rect x="350" y="168" width="11" height="9" rx="4" fill="#2E9AA6"/><rect x="363" y="168" width="14" height="9" rx="4" fill="#937E00"/>
</g></g>
<g transform="rotate(300.00 244 172)">
<g class="ol">
<line x1="318" y1="172" x2="332" y2="172" stroke="#937E00" stroke-width="3"/>
<rect x="332" y="168" width="16" height="9" rx="4" fill="#000977"/><rect x="350" y="168" width="11" height="9" rx="4" fill="#2E9AA6"/><rect x="363" y="168" width="14" height="9" rx="4" fill="#937E00"/>
</g></g>
<g transform="rotate(305.00 244 172)">
<g class="ol">
<line x1="318" y1="172" x2="332" y2="172" stroke="#937E00" stroke-width="3"/>
<rect x="332" y="168" width="16" height="9" rx="4" fill="#000977"/><rect x="350" y="168" width="11" height="9" rx="4" fill="#2E9AA6"/><rect x="363" y="168" width="14" height="9" rx="4" fill="#937E00"/>
</g></g>
<g transform="rotate(310.00 244 172)">
<g class="ol">
<line x1="318" y1="172" x2="332" y2="172" stroke="#937E00" stroke-width="3"/>
<rect x="332" y="168" width="16" height="9" rx="4" fill="#000977"/><rect x="350" y="168" width="11" height="9" rx="4" fill="#2E9AA6"/><rect x="363" y="168" width="14" height="9" rx="4" fill="#937E00"/>
</g></g>
<g transform="rotate(315.00 244 172)">
<g class="ol">
<line x1="318" y1="172" x2="332" y2="172" stroke="#937E00" stroke-width="3"/>
<rect x="332" y="168" width="16" height="9" rx="4" fill="#000977"/><rect x="350" y="168" width="11" height="9" rx="4" fill="#2E9AA6"/><rect x="363" y="168" width="14" height="9" rx="4" fill="#937E00"/>
</g></g>
<g transform="rotate(320.00 244 172)">
<g class="ol">
<line x1="318" y1="172" x2="332" y2="172" stroke="#937E00" stroke-width="3"/>
<rect x="332" y="168" width="16" height="9" rx="4" fill="#000977"/><rect x="350" y="168" width="11" height="9" rx="4" fill="#2E9AA6"/><rect x="363" y="168" width="14" height="9" rx="4" fill="#937E00"/>
</g></g>
<g transform="rotate(325.00 244 172)">
<g class="ol">
<line x1="318" y1="172" x2="332" y2="172" stroke="#937E00" stroke-width="3"/>
<rect x="332" y="168" width="16" height="9" rx="4" fill="#000977"/><rect x="350" y="168" width="11" height="9" rx="4" fill="#2E9AA6"/><rect x="363" y="168" width="14" height="9" rx="4" fill="#937E00"/>
</g></g>
<g transform="rotate(330.00 244 172)">
<g class="ol">
<line x1="318" y1="172" x2="332" y2="172" stroke="#937E00" stroke-width="3"/>
<rect x="332" y="168" width="16" height="9" rx="4" fill="#000977"/><rect x="350" y="168" width="11" height="9" rx="4" fill="#2E9AA6"/><rect x="363" y="168" width="14" height="9" rx="4" fill="#937E00"/>
</g></g>
<g transform="rotate(335.00 244 172)">
<g class="ol">
<line x1="318" y1="172" x2="332" y2="172" stroke="#937E00" stroke-width="3"/>
<rect x="332" y="168" width="16" height="9" rx="4" fill="#000977"/><rect x="350" y="168" width="11" height="9" rx="4" fill="#2E9AA6"/><rect x="363" y="168" width="14" height="9" rx="4" fill="#937E00"/>
</g></g>
<g transform="rotate(340.00 244 172)">
<g class="ol">
<line x1="318" y1="172" x2="332" y2="172" stroke="#937E00" stroke-width="3"/>
<rect x="332" y="168" width="16" height="9" rx="4" fill="#000977"/><rect x="350" y="168" width="11" height="9" rx="4" fill="#2E9AA6"/><rect x="363" y="168" width="14" height="9" rx="4" fill="#937E00"/>
</g></g>
<g transform="rotate(345.00 244 172)">
<g class="ol">
<line x1="318" y1="172" x2="332" y2="172" stroke="#937E00" stroke-width="3"/>
<rect x="332" y="168" width="16" height="9" rx="4" fill="#000977"/><rect x="350" y="168" width="11" height="9" rx="4" fill="#2E9AA6"/><rect x="363" y="168" width="14" height="9" rx="4" fill="#937E00"/>
</g></g>
<g transform="rotate(350.00 244 172)">
<g class="ol">
<line x1="318" y1="172" x2="332" y2="172" stroke="#937E00" stroke-width="3"/>
<rect x="332" y="168" width="16" height="9" rx="4" fill="#000977"/><rect x="350" y="168" width="11" height="9" rx="4" fill="#2E9AA6"/><rect x="363" y="168" width="14" height="9" rx="4" fill="#937E00"/>
</g></g>
<g transform="rotate(355.00 244 172)">
<g class="ol">
<line x1="318" y1="172" x2="332" y2="172" stroke="#937E00" stroke-width="3"/>
<rect x="332" y="168" width="16" height="9" rx="4" fill="#000977"/><rect x="350" y="168" width="11" height="9" rx="4" fill="#2E9AA6"/><rect x="363" y="168" width="14" height="9" rx="4" fill="#937E00"/>
</g></g>
<circle cx="244" cy="172" r="78" fill="url(#gPerla)"/>

<line x1="534" y1="40" x2="534" y2="300" stroke="#5A6373" stroke-width="2" stroke-dasharray="8 7" opacity="0.4"/>

<path d="M560,88 A34,34 0 0,1 560,156" fill="#000977"/>
<line x1="578" y1="122" x2="606" y2="122" stroke="#5A6373" stroke-width="5"/>
<circle cx="622" cy="122" r="15" fill="#937E00"/><text class="t at" x="622" y="130" text-anchor="middle">S</text>
<line x1="637" y1="122" x2="651" y2="122" stroke="#937E00" stroke-width="5"/>
<circle cx="666" cy="122" r="15" fill="#937E00"/><text class="t at" x="666" y="130" text-anchor="middle">S</text>
<line x1="681" y1="122" x2="710" y2="122" stroke="#5A6373" stroke-width="5"/>
<rect x="712" y="117" width="16" height="11" rx="4" fill="#000977"/><rect x="730" y="117" width="11" height="11" rx="4" fill="#2E9AA6"/><rect x="743" y="117" width="14" height="11" rx="4" fill="#937E00"/>

<line x1="656" y1="162" x2="656" y2="196" stroke="#937E00" stroke-width="4" marker-end="url(#fCorte)"/>

<path d="M560,212 A34,34 0 0,1 560,280" fill="#000977"/>
<line x1="578" y1="246" x2="606" y2="246" stroke="#5A6373" stroke-width="5"/>
<circle cx="622" cy="246" r="15" fill="#937E00"/><text class="t at" x="622" y="254" text-anchor="middle">S</text>
<circle cx="666" cy="246" r="15" fill="#937E00"/><text class="t at" x="666" y="254" text-anchor="middle">S</text>
<line x1="681" y1="246" x2="710" y2="246" stroke="#5A6373" stroke-width="5"/>
<rect x="722" y="241" width="16" height="11" rx="4" fill="#000977"/><rect x="740" y="241" width="11" height="11" rx="4" fill="#2E9AA6"/><rect x="753" y="241" width="14" height="11" rx="4" fill="#937E00"/>




</svg>
