<svg xmlns="http://www.w3.org/2000/svg" viewBox="0 0 1180 430" width="1180" height="430" role="img" aria-label="Las dos estrategias lado a lado. A la izquierda, las celulas de cada muestra se suman en una sola columna por muestra. A la derecha, las celulas se conservan y el donante entra al modelo como efecto aleatorio. Las dos terminan con n igual a seis.">
  <style><![CDATA[
    .t   { font-family: Calibri, Inter, sans-serif; fill: #141A4A; }
    .tit { font-size: 24px; font-weight: 700; }
    .sub { font-size: 16px; }
    .lab { font-size: 17px; }
    .neg { font-size: 17px; font-weight: 700; }
    .via { font-size: 15px; }
    .num { font-size: 21px; font-weight: 700; }
    .gde { font-size: 30px; font-weight: 700; }
    .pie { font-size: 17px; }
  ]]></style>

<rect x="40" y="44" width="530" height="308" rx="10" fill="#F7F8FC" stroke="#C9D2E8" stroke-width="1.6"/>
<text class="t tit" x="305" y="30" text-anchor="middle" fill="#00053F">Pseudobulk · agregar por muestra</text>
<rect x="610" y="44" width="530" height="308" rx="10" fill="#F7F8FC" stroke="#C9D2E8" stroke-width="1.6"/>
<text class="t tit" x="875" y="30" text-anchor="middle" fill="#00053F">Modelo mixto · donante como efecto aleatorio</text>
<rect x="61" y="70" width="62" height="80" rx="8" fill="#E6E6F1" stroke="#999DC9" stroke-width="1.3"/><circle cx="75" cy="88" r="6" fill="white" stroke="#2E9AA6" stroke-width="1.8"/><circle cx="75" cy="88" r="2.3" fill="#2E9AA6"/><circle cx="92" cy="88" r="6" fill="white" stroke="#2E9AA6" stroke-width="1.8"/><circle cx="92" cy="88" r="2.3" fill="#2E9AA6"/><circle cx="109" cy="88" r="6" fill="white" stroke="#2E9AA6" stroke-width="1.8"/><circle cx="109" cy="88" r="2.3" fill="#2E9AA6"/><circle cx="75" cy="112" r="6" fill="white" stroke="#2E9AA6" stroke-width="1.8"/><circle cx="75" cy="112" r="2.3" fill="#2E9AA6"/><circle cx="92" cy="112" r="6" fill="white" stroke="#2E9AA6" stroke-width="1.8"/><circle cx="92" cy="112" r="2.3" fill="#2E9AA6"/><circle cx="109" cy="112" r="6" fill="white" stroke="#2E9AA6" stroke-width="1.8"/><circle cx="109" cy="112" r="2.3" fill="#2E9AA6"/><circle cx="75" cy="136" r="6" fill="white" stroke="#2E9AA6" stroke-width="1.8"/><circle cx="75" cy="136" r="2.3" fill="#2E9AA6"/><circle cx="92" cy="136" r="6" fill="white" stroke="#2E9AA6" stroke-width="1.8"/><circle cx="92" cy="136" r="2.3" fill="#2E9AA6"/><circle cx="109" cy="136" r="6" fill="white" stroke="#2E9AA6" stroke-width="1.8"/><circle cx="109" cy="136" r="2.3" fill="#2E9AA6"/>
<rect x="137" y="70" width="62" height="80" rx="8" fill="#E6E6F1" stroke="#999DC9" stroke-width="1.3"/><circle cx="151" cy="88" r="6" fill="white" stroke="#2E9AA6" stroke-width="1.8"/><circle cx="151" cy="88" r="2.3" fill="#2E9AA6"/><circle cx="168" cy="88" r="6" fill="white" stroke="#2E9AA6" stroke-width="1.8"/><circle cx="168" cy="88" r="2.3" fill="#2E9AA6"/><circle cx="185" cy="88" r="6" fill="white" stroke="#2E9AA6" stroke-width="1.8"/><circle cx="185" cy="88" r="2.3" fill="#2E9AA6"/><circle cx="151" cy="112" r="6" fill="white" stroke="#2E9AA6" stroke-width="1.8"/><circle cx="151" cy="112" r="2.3" fill="#2E9AA6"/><circle cx="168" cy="112" r="6" fill="white" stroke="#2E9AA6" stroke-width="1.8"/><circle cx="168" cy="112" r="2.3" fill="#2E9AA6"/><circle cx="185" cy="112" r="6" fill="white" stroke="#2E9AA6" stroke-width="1.8"/><circle cx="185" cy="112" r="2.3" fill="#2E9AA6"/><circle cx="151" cy="136" r="6" fill="white" stroke="#2E9AA6" stroke-width="1.8"/><circle cx="151" cy="136" r="2.3" fill="#2E9AA6"/><circle cx="168" cy="136" r="6" fill="white" stroke="#2E9AA6" stroke-width="1.8"/><circle cx="168" cy="136" r="2.3" fill="#2E9AA6"/><circle cx="185" cy="136" r="6" fill="white" stroke="#2E9AA6" stroke-width="1.8"/><circle cx="185" cy="136" r="2.3" fill="#2E9AA6"/>
<rect x="213" y="70" width="62" height="80" rx="8" fill="#E6E6F1" stroke="#999DC9" stroke-width="1.3"/><circle cx="227" cy="88" r="6" fill="white" stroke="#2E9AA6" stroke-width="1.8"/><circle cx="227" cy="88" r="2.3" fill="#2E9AA6"/><circle cx="244" cy="88" r="6" fill="white" stroke="#2E9AA6" stroke-width="1.8"/><circle cx="244" cy="88" r="2.3" fill="#2E9AA6"/><circle cx="261" cy="88" r="6" fill="white" stroke="#2E9AA6" stroke-width="1.8"/><circle cx="261" cy="88" r="2.3" fill="#2E9AA6"/><circle cx="227" cy="112" r="6" fill="white" stroke="#2E9AA6" stroke-width="1.8"/><circle cx="227" cy="112" r="2.3" fill="#2E9AA6"/><circle cx="244" cy="112" r="6" fill="white" stroke="#2E9AA6" stroke-width="1.8"/><circle cx="244" cy="112" r="2.3" fill="#2E9AA6"/><circle cx="261" cy="112" r="6" fill="white" stroke="#2E9AA6" stroke-width="1.8"/><circle cx="261" cy="112" r="2.3" fill="#2E9AA6"/><circle cx="227" cy="136" r="6" fill="white" stroke="#2E9AA6" stroke-width="1.8"/><circle cx="227" cy="136" r="2.3" fill="#2E9AA6"/><circle cx="244" cy="136" r="6" fill="white" stroke="#2E9AA6" stroke-width="1.8"/><circle cx="244" cy="136" r="2.3" fill="#2E9AA6"/><circle cx="261" cy="136" r="6" fill="white" stroke="#2E9AA6" stroke-width="1.8"/><circle cx="261" cy="136" r="2.3" fill="#2E9AA6"/>
<rect x="289" y="70" width="62" height="80" rx="8" fill="#F4F2E6" stroke="#D4CB99" stroke-width="1.3"/><circle cx="303" cy="88" r="6" fill="white" stroke="#2E9AA6" stroke-width="1.8"/><circle cx="303" cy="88" r="2.3" fill="#2E9AA6"/><circle cx="320" cy="88" r="6" fill="white" stroke="#2E9AA6" stroke-width="1.8"/><circle cx="320" cy="88" r="2.3" fill="#2E9AA6"/><circle cx="337" cy="88" r="6" fill="white" stroke="#2E9AA6" stroke-width="1.8"/><circle cx="337" cy="88" r="2.3" fill="#2E9AA6"/><circle cx="303" cy="112" r="6" fill="white" stroke="#2E9AA6" stroke-width="1.8"/><circle cx="303" cy="112" r="2.3" fill="#2E9AA6"/><circle cx="320" cy="112" r="6" fill="white" stroke="#2E9AA6" stroke-width="1.8"/><circle cx="320" cy="112" r="2.3" fill="#2E9AA6"/><circle cx="337" cy="112" r="6" fill="white" stroke="#2E9AA6" stroke-width="1.8"/><circle cx="337" cy="112" r="2.3" fill="#2E9AA6"/><circle cx="303" cy="136" r="6" fill="white" stroke="#2E9AA6" stroke-width="1.8"/><circle cx="303" cy="136" r="2.3" fill="#2E9AA6"/><circle cx="320" cy="136" r="6" fill="white" stroke="#2E9AA6" stroke-width="1.8"/><circle cx="320" cy="136" r="2.3" fill="#2E9AA6"/><circle cx="337" cy="136" r="6" fill="white" stroke="#2E9AA6" stroke-width="1.8"/><circle cx="337" cy="136" r="2.3" fill="#2E9AA6"/>
<rect x="365" y="70" width="62" height="80" rx="8" fill="#F4F2E6" stroke="#D4CB99" stroke-width="1.3"/><circle cx="379" cy="88" r="6" fill="white" stroke="#2E9AA6" stroke-width="1.8"/><circle cx="379" cy="88" r="2.3" fill="#2E9AA6"/><circle cx="396" cy="88" r="6" fill="white" stroke="#2E9AA6" stroke-width="1.8"/><circle cx="396" cy="88" r="2.3" fill="#2E9AA6"/><circle cx="413" cy="88" r="6" fill="white" stroke="#2E9AA6" stroke-width="1.8"/><circle cx="413" cy="88" r="2.3" fill="#2E9AA6"/><circle cx="379" cy="112" r="6" fill="white" stroke="#2E9AA6" stroke-width="1.8"/><circle cx="379" cy="112" r="2.3" fill="#2E9AA6"/><circle cx="396" cy="112" r="6" fill="white" stroke="#2E9AA6" stroke-width="1.8"/><circle cx="396" cy="112" r="2.3" fill="#2E9AA6"/><circle cx="413" cy="112" r="6" fill="white" stroke="#2E9AA6" stroke-width="1.8"/><circle cx="413" cy="112" r="2.3" fill="#2E9AA6"/><circle cx="379" cy="136" r="6" fill="white" stroke="#2E9AA6" stroke-width="1.8"/><circle cx="379" cy="136" r="2.3" fill="#2E9AA6"/><circle cx="396" cy="136" r="6" fill="white" stroke="#2E9AA6" stroke-width="1.8"/><circle cx="396" cy="136" r="2.3" fill="#2E9AA6"/><circle cx="413" cy="136" r="6" fill="white" stroke="#2E9AA6" stroke-width="1.8"/><circle cx="413" cy="136" r="2.3" fill="#2E9AA6"/>
<rect x="441" y="70" width="62" height="80" rx="8" fill="#F4F2E6" stroke="#D4CB99" stroke-width="1.3"/><circle cx="455" cy="88" r="6" fill="white" stroke="#2E9AA6" stroke-width="1.8"/><circle cx="455" cy="88" r="2.3" fill="#2E9AA6"/><circle cx="472" cy="88" r="6" fill="white" stroke="#2E9AA6" stroke-width="1.8"/><circle cx="472" cy="88" r="2.3" fill="#2E9AA6"/><circle cx="489" cy="88" r="6" fill="white" stroke="#2E9AA6" stroke-width="1.8"/><circle cx="489" cy="88" r="2.3" fill="#2E9AA6"/><circle cx="455" cy="112" r="6" fill="white" stroke="#2E9AA6" stroke-width="1.8"/><circle cx="455" cy="112" r="2.3" fill="#2E9AA6"/><circle cx="472" cy="112" r="6" fill="white" stroke="#2E9AA6" stroke-width="1.8"/><circle cx="472" cy="112" r="2.3" fill="#2E9AA6"/><circle cx="489" cy="112" r="6" fill="white" stroke="#2E9AA6" stroke-width="1.8"/><circle cx="489" cy="112" r="2.3" fill="#2E9AA6"/><circle cx="455" cy="136" r="6" fill="white" stroke="#2E9AA6" stroke-width="1.8"/><circle cx="455" cy="136" r="2.3" fill="#2E9AA6"/><circle cx="472" cy="136" r="6" fill="white" stroke="#2E9AA6" stroke-width="1.8"/><circle cx="472" cy="136" r="2.3" fill="#2E9AA6"/><circle cx="489" cy="136" r="6" fill="white" stroke="#2E9AA6" stroke-width="1.8"/><circle cx="489" cy="136" r="2.3" fill="#2E9AA6"/>
<text class="t via" x="282" y="170" text-anchor="middle" fill="#5A6373">las células de cada muestra</text>
<path d="M 92.0 182.0 L 92.0 201.0" fill="none" stroke="#5A6373" stroke-width="2.2"/><path d="M 92 208 l -5.5 -9 l 11 0 z" fill="#5A6373"/>
<path d="M 168.0 182.0 L 168.0 201.0" fill="none" stroke="#5A6373" stroke-width="2.2"/><path d="M 168 208 l -5.5 -9 l 11 0 z" fill="#5A6373"/>
<path d="M 244.0 182.0 L 244.0 201.0" fill="none" stroke="#5A6373" stroke-width="2.2"/><path d="M 244 208 l -5.5 -9 l 11 0 z" fill="#5A6373"/>
<path d="M 320.0 182.0 L 320.0 201.0" fill="none" stroke="#5A6373" stroke-width="2.2"/><path d="M 320 208 l -5.5 -9 l 11 0 z" fill="#5A6373"/>
<path d="M 396.0 182.0 L 396.0 201.0" fill="none" stroke="#5A6373" stroke-width="2.2"/><path d="M 396 208 l -5.5 -9 l 11 0 z" fill="#5A6373"/>
<path d="M 472.0 182.0 L 472.0 201.0" fill="none" stroke="#5A6373" stroke-width="2.2"/><path d="M 472 208 l -5.5 -9 l 11 0 z" fill="#5A6373"/>
<text class="t via" x="534" y="190" text-anchor="middle" fill="#5A6373">sumar</text>
<text class="t via" x="534" y="208" text-anchor="middle" fill="#5A6373">cuentas</text>
<rect x="77" y="216" width="30" height="56" rx="5" fill="#000977"/>
<rect x="153" y="216" width="30" height="56" rx="5" fill="#000977"/>
<rect x="229" y="216" width="30" height="56" rx="5" fill="#000977"/>
<rect x="305" y="216" width="30" height="56" rx="5" fill="#937E00"/>
<rect x="381" y="216" width="30" height="56" rx="5" fill="#937E00"/>
<rect x="457" y="216" width="30" height="56" rx="5" fill="#937E00"/>
<text class="t lab" x="282" y="294" text-anchor="middle" fill="#141A4A">una columna por muestra</text>
<rect x="229.0" y="310" width="106" height="34" rx="17" fill="#D6D7E0" stroke="#8C8EA9" stroke-width="1.4"/><text class="t num" x="282" y="334" text-anchor="middle" fill="#090E44">n = 6</text>
<rect x="631" y="70" width="62" height="80" rx="8" fill="#E6E6F1" stroke="#999DC9" stroke-width="1.3"/><circle cx="645" cy="88" r="6" fill="white" stroke="#2E9AA6" stroke-width="1.8"/><circle cx="645" cy="88" r="2.3" fill="#2E9AA6"/><circle cx="662" cy="88" r="6" fill="white" stroke="#2E9AA6" stroke-width="1.8"/><circle cx="662" cy="88" r="2.3" fill="#2E9AA6"/><circle cx="679" cy="88" r="6" fill="white" stroke="#2E9AA6" stroke-width="1.8"/><circle cx="679" cy="88" r="2.3" fill="#2E9AA6"/><circle cx="645" cy="112" r="6" fill="white" stroke="#2E9AA6" stroke-width="1.8"/><circle cx="645" cy="112" r="2.3" fill="#2E9AA6"/><circle cx="662" cy="112" r="6" fill="white" stroke="#2E9AA6" stroke-width="1.8"/><circle cx="662" cy="112" r="2.3" fill="#2E9AA6"/><circle cx="679" cy="112" r="6" fill="white" stroke="#2E9AA6" stroke-width="1.8"/><circle cx="679" cy="112" r="2.3" fill="#2E9AA6"/><circle cx="645" cy="136" r="6" fill="white" stroke="#2E9AA6" stroke-width="1.8"/><circle cx="645" cy="136" r="2.3" fill="#2E9AA6"/><circle cx="662" cy="136" r="6" fill="white" stroke="#2E9AA6" stroke-width="1.8"/><circle cx="662" cy="136" r="2.3" fill="#2E9AA6"/><circle cx="679" cy="136" r="6" fill="white" stroke="#2E9AA6" stroke-width="1.8"/><circle cx="679" cy="136" r="2.3" fill="#2E9AA6"/>
<rect x="707" y="70" width="62" height="80" rx="8" fill="#E6E6F1" stroke="#999DC9" stroke-width="1.3"/><circle cx="721" cy="88" r="6" fill="white" stroke="#2E9AA6" stroke-width="1.8"/><circle cx="721" cy="88" r="2.3" fill="#2E9AA6"/><circle cx="738" cy="88" r="6" fill="white" stroke="#2E9AA6" stroke-width="1.8"/><circle cx="738" cy="88" r="2.3" fill="#2E9AA6"/><circle cx="755" cy="88" r="6" fill="white" stroke="#2E9AA6" stroke-width="1.8"/><circle cx="755" cy="88" r="2.3" fill="#2E9AA6"/><circle cx="721" cy="112" r="6" fill="white" stroke="#2E9AA6" stroke-width="1.8"/><circle cx="721" cy="112" r="2.3" fill="#2E9AA6"/><circle cx="738" cy="112" r="6" fill="white" stroke="#2E9AA6" stroke-width="1.8"/><circle cx="738" cy="112" r="2.3" fill="#2E9AA6"/><circle cx="755" cy="112" r="6" fill="white" stroke="#2E9AA6" stroke-width="1.8"/><circle cx="755" cy="112" r="2.3" fill="#2E9AA6"/><circle cx="721" cy="136" r="6" fill="white" stroke="#2E9AA6" stroke-width="1.8"/><circle cx="721" cy="136" r="2.3" fill="#2E9AA6"/><circle cx="738" cy="136" r="6" fill="white" stroke="#2E9AA6" stroke-width="1.8"/><circle cx="738" cy="136" r="2.3" fill="#2E9AA6"/><circle cx="755" cy="136" r="6" fill="white" stroke="#2E9AA6" stroke-width="1.8"/><circle cx="755" cy="136" r="2.3" fill="#2E9AA6"/>
<rect x="783" y="70" width="62" height="80" rx="8" fill="#E6E6F1" stroke="#999DC9" stroke-width="1.3"/><circle cx="797" cy="88" r="6" fill="white" stroke="#2E9AA6" stroke-width="1.8"/><circle cx="797" cy="88" r="2.3" fill="#2E9AA6"/><circle cx="814" cy="88" r="6" fill="white" stroke="#2E9AA6" stroke-width="1.8"/><circle cx="814" cy="88" r="2.3" fill="#2E9AA6"/><circle cx="831" cy="88" r="6" fill="white" stroke="#2E9AA6" stroke-width="1.8"/><circle cx="831" cy="88" r="2.3" fill="#2E9AA6"/><circle cx="797" cy="112" r="6" fill="white" stroke="#2E9AA6" stroke-width="1.8"/><circle cx="797" cy="112" r="2.3" fill="#2E9AA6"/><circle cx="814" cy="112" r="6" fill="white" stroke="#2E9AA6" stroke-width="1.8"/><circle cx="814" cy="112" r="2.3" fill="#2E9AA6"/><circle cx="831" cy="112" r="6" fill="white" stroke="#2E9AA6" stroke-width="1.8"/><circle cx="831" cy="112" r="2.3" fill="#2E9AA6"/><circle cx="797" cy="136" r="6" fill="white" stroke="#2E9AA6" stroke-width="1.8"/><circle cx="797" cy="136" r="2.3" fill="#2E9AA6"/><circle cx="814" cy="136" r="6" fill="white" stroke="#2E9AA6" stroke-width="1.8"/><circle cx="814" cy="136" r="2.3" fill="#2E9AA6"/><circle cx="831" cy="136" r="6" fill="white" stroke="#2E9AA6" stroke-width="1.8"/><circle cx="831" cy="136" r="2.3" fill="#2E9AA6"/>
<rect x="859" y="70" width="62" height="80" rx="8" fill="#F4F2E6" stroke="#D4CB99" stroke-width="1.3"/><circle cx="873" cy="88" r="6" fill="white" stroke="#2E9AA6" stroke-width="1.8"/><circle cx="873" cy="88" r="2.3" fill="#2E9AA6"/><circle cx="890" cy="88" r="6" fill="white" stroke="#2E9AA6" stroke-width="1.8"/><circle cx="890" cy="88" r="2.3" fill="#2E9AA6"/><circle cx="907" cy="88" r="6" fill="white" stroke="#2E9AA6" stroke-width="1.8"/><circle cx="907" cy="88" r="2.3" fill="#2E9AA6"/><circle cx="873" cy="112" r="6" fill="white" stroke="#2E9AA6" stroke-width="1.8"/><circle cx="873" cy="112" r="2.3" fill="#2E9AA6"/><circle cx="890" cy="112" r="6" fill="white" stroke="#2E9AA6" stroke-width="1.8"/><circle cx="890" cy="112" r="2.3" fill="#2E9AA6"/><circle cx="907" cy="112" r="6" fill="white" stroke="#2E9AA6" stroke-width="1.8"/><circle cx="907" cy="112" r="2.3" fill="#2E9AA6"/><circle cx="873" cy="136" r="6" fill="white" stroke="#2E9AA6" stroke-width="1.8"/><circle cx="873" cy="136" r="2.3" fill="#2E9AA6"/><circle cx="890" cy="136" r="6" fill="white" stroke="#2E9AA6" stroke-width="1.8"/><circle cx="890" cy="136" r="2.3" fill="#2E9AA6"/><circle cx="907" cy="136" r="6" fill="white" stroke="#2E9AA6" stroke-width="1.8"/><circle cx="907" cy="136" r="2.3" fill="#2E9AA6"/>
<rect x="935" y="70" width="62" height="80" rx="8" fill="#F4F2E6" stroke="#D4CB99" stroke-width="1.3"/><circle cx="949" cy="88" r="6" fill="white" stroke="#2E9AA6" stroke-width="1.8"/><circle cx="949" cy="88" r="2.3" fill="#2E9AA6"/><circle cx="966" cy="88" r="6" fill="white" stroke="#2E9AA6" stroke-width="1.8"/><circle cx="966" cy="88" r="2.3" fill="#2E9AA6"/><circle cx="983" cy="88" r="6" fill="white" stroke="#2E9AA6" stroke-width="1.8"/><circle cx="983" cy="88" r="2.3" fill="#2E9AA6"/><circle cx="949" cy="112" r="6" fill="white" stroke="#2E9AA6" stroke-width="1.8"/><circle cx="949" cy="112" r="2.3" fill="#2E9AA6"/><circle cx="966" cy="112" r="6" fill="white" stroke="#2E9AA6" stroke-width="1.8"/><circle cx="966" cy="112" r="2.3" fill="#2E9AA6"/><circle cx="983" cy="112" r="6" fill="white" stroke="#2E9AA6" stroke-width="1.8"/><circle cx="983" cy="112" r="2.3" fill="#2E9AA6"/><circle cx="949" cy="136" r="6" fill="white" stroke="#2E9AA6" stroke-width="1.8"/><circle cx="949" cy="136" r="2.3" fill="#2E9AA6"/><circle cx="966" cy="136" r="6" fill="white" stroke="#2E9AA6" stroke-width="1.8"/><circle cx="966" cy="136" r="2.3" fill="#2E9AA6"/><circle cx="983" cy="136" r="6" fill="white" stroke="#2E9AA6" stroke-width="1.8"/><circle cx="983" cy="136" r="2.3" fill="#2E9AA6"/>
<rect x="1011" y="70" width="62" height="80" rx="8" fill="#F4F2E6" stroke="#D4CB99" stroke-width="1.3"/><circle cx="1025" cy="88" r="6" fill="white" stroke="#2E9AA6" stroke-width="1.8"/><circle cx="1025" cy="88" r="2.3" fill="#2E9AA6"/><circle cx="1042" cy="88" r="6" fill="white" stroke="#2E9AA6" stroke-width="1.8"/><circle cx="1042" cy="88" r="2.3" fill="#2E9AA6"/><circle cx="1059" cy="88" r="6" fill="white" stroke="#2E9AA6" stroke-width="1.8"/><circle cx="1059" cy="88" r="2.3" fill="#2E9AA6"/><circle cx="1025" cy="112" r="6" fill="white" stroke="#2E9AA6" stroke-width="1.8"/><circle cx="1025" cy="112" r="2.3" fill="#2E9AA6"/><circle cx="1042" cy="112" r="6" fill="white" stroke="#2E9AA6" stroke-width="1.8"/><circle cx="1042" cy="112" r="2.3" fill="#2E9AA6"/><circle cx="1059" cy="112" r="6" fill="white" stroke="#2E9AA6" stroke-width="1.8"/><circle cx="1059" cy="112" r="2.3" fill="#2E9AA6"/><circle cx="1025" cy="136" r="6" fill="white" stroke="#2E9AA6" stroke-width="1.8"/><circle cx="1025" cy="136" r="2.3" fill="#2E9AA6"/><circle cx="1042" cy="136" r="6" fill="white" stroke="#2E9AA6" stroke-width="1.8"/><circle cx="1042" cy="136" r="2.3" fill="#2E9AA6"/><circle cx="1059" cy="136" r="6" fill="white" stroke="#2E9AA6" stroke-width="1.8"/><circle cx="1059" cy="136" r="2.3" fill="#2E9AA6"/>
<text class="t via" x="852" y="170" text-anchor="middle" fill="#5A6373">las células no se agregan</text>
<rect x="656" y="192" width="440" height="86" rx="10" fill="#E7E9F7" stroke="#C9D2E8" stroke-width="1.4"/>
<text class="t neg" x="876" y="222" text-anchor="middle" fill="#00053F">expresión ~ condición + (1 | donante)</text>
<text class="t via" x="876" y="246" text-anchor="middle" fill="#5A6373">el paréntesis dice que las células de un mismo</text>
<text class="t via" x="876" y="266" text-anchor="middle" fill="#5A6373">donante están correlacionadas entre sí</text>
<rect x="823.0" y="310" width="106" height="34" rx="17" fill="#D6D7E0" stroke="#8C8EA9" stroke-width="1.4"/><text class="t num" x="876" y="334" text-anchor="middle" fill="#090E44">n = 6</text>
<rect x="40" y="376" width="1100" height="40" rx="8" fill="#F3EFDD" stroke="none"/><text class="t pie" x="590" y="402" text-anchor="middle" fill="#6E5E00">Las dos cuentan donantes, no células. Se diferencian en qué hacen con la variación entre células.</text>
</svg>
